<?xml version="1.0" encoding="UTF-8"?>
<svg xmlns="http://www.w3.org/2000/svg" xmlns:xlink="http://www.w3.org/1999/xlink" viewBox="165.6 291.5 880.3 253.2">
<path fill-rule="nonzero" fill="#0f172a" d="M 315.960938 425.332031 L 242.824219 425.332031 L 242.824219 356.042969 L 317.011719 356.042969 C 317.011719 356.042969 344.304688 360.246094 343.605469 390.6875 C 342.90625 421.132812 315.960938 425.332031 315.960938 425.332031 M 356.023438 348.0625 C 346.554688 335.132812 331.296875 327.699219 315.269531 327.699219 L 212.730469 327.699219 L 212.730469 507.214844 L 242.125 507.214844 L 242.125 452.625 L 315.054688 452.625 C 322.957031 452.625 330.761719 450.601562 337.539062 446.53125 C 351.21875 438.324219 368.800781 419.707031 368.800781 389.289062 C 368.800781 389.289062 370.699219 368.097656 356.023438 348.0625 "/>
<path fill-rule="nonzero" fill="#0f172a" d="M 492.328125 505.464844 L 529.769531 505.464844 L 586.671875 377.9375 C 587.691406 375.648438 590.925781 375.601562 592.015625 377.859375 L 655.042969 508.613281 L 688.640625 508.613281 L 604.304688 331.898438 L 576.660156 331.898438 Z M 492.328125 505.464844 "/>
<path fill-rule="nonzero" fill="#0f172a" d="M 832.898438 508.613281 L 868.328125 508.613281 L 868.328125 384.386719 L 967.273438 508.613281 L 999.027344 508.613281 L 999.027344 328.222656 L 967.535156 328.222656 L 969.109375 457.085938 L 865.703125 328.222656 L 835.257812 328.222656 Z M 832.898438 508.613281 "/>
</svg>
