<?xml version="1.0" encoding="UTF-8"?>
<svg xmlns="http://www.w3.org/2000/svg" xmlns:xlink="http://www.w3.org/1999/xlink" viewBox="0.0 336.8 1190.5 163.2">
<path fill-rule="nonzero" fill="#0f172a" d="M 814.644531 423.722656 L 773.351562 423.722656 L 773.351562 384.601562 L 815.238281 384.601562 C 815.238281 384.601562 830.648438 386.972656 830.253906 404.160156 C 829.859375 421.351562 814.644531 423.722656 814.644531 423.722656 M 837.265625 380.09375 C 831.917969 372.792969 823.304688 368.597656 814.253906 368.597656 L 756.359375 368.597656 L 756.359375 469.953125 L 772.957031 469.953125 L 772.957031 439.132812 L 814.132812 439.132812 C 818.597656 439.132812 823 437.988281 826.828125 435.691406 C 834.550781 431.054688 844.480469 420.542969 844.480469 403.371094 C 844.480469 403.371094 845.550781 391.40625 837.265625 380.09375 "/>
<path fill-rule="nonzero" fill="#0f172a" d="M 879.300781 468.964844 L 900.441406 468.964844 L 932.570312 396.960938 C 933.144531 395.667969 934.972656 395.640625 935.585938 396.917969 L 971.175781 470.742188 L 990.144531 470.742188 L 942.527344 370.964844 L 926.917969 370.964844 Z M 879.300781 468.964844 "/>
<path fill-rule="nonzero" fill="#0f172a" d="M 204.617188 470.746094 L 224.625 470.746094 L 224.625 400.601562 L 280.488281 470.746094 L 298.417969 470.746094 L 298.417969 368.890625 L 280.636719 368.890625 L 281.527344 441.652344 L 223.140625 368.890625 L 205.953125 368.890625 Z M 204.617188 470.746094 "/>
<path fill-rule="nonzero" fill="#0f172a" d="M 1041.445312 470.746094 L 1061.453125 470.746094 L 1061.453125 400.601562 L 1117.316406 470.746094 L 1135.246094 470.746094 L 1135.246094 368.890625 L 1117.464844 368.890625 L 1118.355469 441.652344 L 1059.96875 368.890625 L 1042.78125 368.890625 Z M 1041.445312 470.746094 "/>
<path fill-rule="nonzero" fill="#0f172a" d="M 400.386719 458.789062 C 379.054688 458.789062 361.761719 441.496094 361.761719 420.164062 C 361.761719 398.832031 379.054688 381.539062 400.386719 381.539062 C 421.71875 381.539062 439.011719 398.832031 439.011719 420.164062 C 439.011719 441.496094 421.71875 458.789062 400.386719 458.789062 M 400.386719 363.445312 C 369.253906 363.445312 344.015625 388.683594 344.015625 419.816406 C 344.015625 450.949219 369.253906 476.1875 400.386719 476.1875 C 431.519531 476.1875 456.757812 450.949219 456.757812 419.816406 C 456.757812 388.683594 431.519531 363.445312 400.386719 363.445312 "/>
<path fill-rule="nonzero" fill="#0f172a" d="M 619.796875 363.445312 L 596.601562 439.535156 L 570.617188 365.765625 L 560.410156 365.765625 L 534.429688 439.535156 L 511.234375 363.445312 L 490.355469 363.445312 L 524.6875 473.867188 L 540.460938 473.867188 L 565.515625 399.632812 L 590.570312 473.867188 L 606.34375 473.867188 L 640.675781 363.445312 Z M 619.796875 363.445312 "/>
<path fill-rule="nonzero" fill="#0f172a" d="M 64.460938 459.59375 L 74.941406 447.914062 C 83.800781 455.804688 95.558594 461.015625 108.21875 461.015625 C 122.960938 461.015625 131.144531 454.578125 131.144531 445.683594 C 131.144531 434.878906 122.640625 431.882812 111.105469 427.253906 L 94.675781 420.417969 C 82.789062 415.964844 69.738281 407.796875 69.738281 391.523438 C 69.738281 374.300781 86.074219 361.277344 109.0625 361.277344 C 123.476562 361.277344 136.609375 366.6875 145.640625 375.136719 L 136.425781 385.949219 C 128.648438 379.757812 120.1875 376.097656 108.296875 376.097656 C 96.042969 376.097656 87.808594 381.476562 87.808594 390.519531 C 87.808594 400.113281 97.855469 403.613281 108.113281 407.390625 L 123.90625 413.992188 C 138.507812 419.390625 149.421875 427.472656 149.421875 443.617188 C 149.421875 461.355469 133.640625 475.835938 107.242188 475.835938 C 90.539062 475.835938 75.414062 469.675781 64.460938 459.59375 "/>
<path fill-rule="nonzero" fill="#0f172a" d="M 65.835938 459.523438 C 76.953125 469.417969 91.621094 474.859375 107.242188 474.859375 C 131.5 474.859375 148.445312 462.011719 148.445312 443.621094 C 148.445312 430.125 140.773438 421.269531 123.566406 414.90625 L 107.167969 408.082031 C 97.171875 404.40625 86.832031 400.605469 86.832031 390.523438 C 86.832031 381.164062 95.257812 375.121094 108.296875 375.121094 C 119.113281 375.121094 127.785156 378.050781 136.289062 384.601562 L 144.289062 375.21875 C 135.09375 366.96875 122.3125 362.253906 109.0625 362.253906 C 86.84375 362.253906 70.714844 374.5625 70.714844 391.523438 C 70.714844 404.046875 78.894531 413.464844 95.019531 419.503906 L 112.707031 426.839844 C 123.550781 431.183594 132.121094 434.609375 132.121094 445.683594 C 132.121094 455.589844 122.738281 461.992188 108.21875 461.992188 C 96.3125 461.992188 84.5625 457.488281 75.023438 449.285156 Z M 107.242188 476.8125 C 90.792969 476.8125 75.363281 470.953125 63.796875 460.3125 L 63.089844 459.660156 L 74.867188 446.539062 L 75.59375 447.1875 C 84.898438 455.476562 96.484375 460.039062 108.21875 460.039062 C 121.757812 460.039062 130.167969 454.539062 130.167969 445.683594 C 130.167969 435.933594 122.933594 433.035156 111.980469 428.65625 L 110.738281 428.15625 L 94.300781 421.320312 C 77.367188 414.980469 68.761719 404.949219 68.761719 391.523438 C 68.761719 373.433594 85.710938 360.300781 109.0625 360.300781 C 123.136719 360.300781 136.710938 365.449219 146.308594 374.421875 L 146.988281 375.058594 L 136.554688 387.300781 L 135.816406 386.714844 C 127.441406 380.046875 118.957031 377.074219 108.296875 377.074219 C 96.257812 377.074219 88.785156 382.226562 88.785156 390.523438 C 88.785156 399.242188 98.042969 402.644531 107.84375 406.25 L 108.449219 406.476562 L 124.28125 413.09375 C 136.421875 417.578125 150.398438 425.121094 150.398438 443.621094 C 150.398438 463.164062 132.652344 476.8125 107.242188 476.8125 "/>
</svg>
